<svg xmlns="http://www.w3.org/2000/svg" viewBox="0 0 64 64" width="64" height="64">
  <!-- 배경 원 -->
  <circle cx="32" cy="32" r="30" fill="#ffffff" stroke="#f97316" stroke-width="2"/>
  
  <!-- Phoenix 불사조 날개 -->
  <path d="M16 20c-2 0-4 1-5 3-1 2-1 4-1 6 0 3 1 5 2 7 1 2 2 3 3 4 1 1 1 1 1 1s0 0 1-1c1-1 2-2 3-4 1-2 2-4 2-7 0-2 0-4-1-6-1-2-3-3-5-3z" 
        fill="#f97316" 
        stroke="#ea580c" 
        stroke-width="1"/>
  
  <path d="M48 20c-2 0-4 1-5 3-1 2-1 4-1 6 0 3 1 5 2 7 1 2 2 3 3 4 1 1 1 1 1 1s0 0 1-1c1-1 2-2 3-4 1-2 2-4 2-7 0-2 0-4-1-6-1-2-3-3-5-3z" 
        fill="#f97316" 
        stroke="#ea580c" 
        stroke-width="1"/>
  
  <!-- 중앙 불꽃 -->
  <path d="M32 12c-3 0-6 2-8 4-2 2-3 5-3 8 0 4 1 7 3 10 2 3 4 5 8 5s6-2 8-5c2-3 3-6 3-10 0-3-1-6-3-8-2-2-5-4-8-4z" 
        fill="#f97316" 
        stroke="#ea580c" 
        stroke-width="1.5"/>
  
  <!-- 불꽃 내부 하이라이트 -->
  <path d="M32 20c-1 0-2 1-2 2-1 1-1 2-1 3 0 2 0 3 1 4 0 1 1 1 1 1s1 0 1-1c1-1 1-2 1-4 0-1 0-2-1-3-1-1-1-2-2-2z" 
        fill="#ffffff" 
        opacity="0.9"/>
  
  <!-- 안전 방패 -->
  <path d="M32 45c-2 0-4-1-5-2-1-1-2-2-2-4 0-2 1-4 2-5 1-1 3-2 5-2s4 1 5 2c1 1 2 3 2 5 0 2-1 3-2 4-1 1-3 2-5 2z" 
        fill="#64748b" 
        stroke="#475569" 
        stroke-width="1"/>
  
  <!-- 방패 중앙 체크마크 -->
  <path d="M28 42l2 2 4-4" 
        fill="none" 
        stroke="#ffffff" 
        stroke-width="2" 
        stroke-linecap="round" 
        stroke-linejoin="round"/>
</svg>
